<svg xmlns="http://www.w3.org/2000/svg" viewBox="0 0 50 9"><defs><style>.cls-1{fill:#426648;}</style></defs><title>Asset 12</title><g id="Layer_2" data-name="Layer 2"><g id="Layer_1-2" data-name="Layer 1"><path class="cls-1" d="M0,6.82V6.54c.46-.11.57-.23.57-.64V1.28C.57.87.47.74,0,.64V.35H3.37V.64c-.51.09-.62.24-.62.67V6.5l.48,0c1-.07,1.5-.55,1.82-1.92h.28l0,2.27Z"/><path class="cls-1" d="M8.21,6c0,.34.08.45.49.53v.28h-3V6.54c.41-.08.49-.19.49-.53V1.21c0-.35,0-.42-.29-.52L5.68.63V.35L8.21,0Z"/><path class="cls-1" d="M11.71,2.17a2,2,0,0,1,2.19,2,3.26,3.26,0,0,1,0,.38H11.19a1.67,1.67,0,0,0,1.67,1.6,1.47,1.47,0,0,0,1-.34v.28a2.42,2.42,0,0,1-2.07.87,2.39,2.39,0,1,1,0-4.75Zm-.57,2,1,0c0-.1,0-.23,0-.41,0-.79-.14-1.21-.47-1.21s-.57.47-.57,1.3Z"/><path class="cls-1" d="M16.87,2.17a4,4,0,0,1,1.33.21l1.58-.12v.51l-1.25-.12a1.09,1.09,0,0,1,.85,1c0,.88-1,1.39-2.46,1.39l-.54,0c-.24,0-.39.16-.39.35s.23.35.73.35h.74c1.47,0,2.16.6,2.16,1.54S18.48,9,16.86,9s-2.59-.39-2.59-.95.52-.73,2-.75c-1.12,0-1.86-.43-1.86-1.12S15,5,16.14,4.94c-1-.1-1.71-.55-1.71-1.3S15.41,2.17,16.87,2.17Zm0,6.46c.64,0,1.06-.28,1.06-.7s-.26-.58-.82-.58h-.55A.59.59,0,0,0,16,8C16,8.36,16.31,8.63,16.89,8.63Zm0-4c.35,0,.5-.4.5-1.06s-.2-1.11-.52-1.11-.5.41-.5,1.06S16.6,4.68,16.92,4.68Z"/><path class="cls-1" d="M22.63,6c0,.34.09.45.5.53v.28h-3V6.54c.41-.08.49-.19.49-.53V3.35c0-.34,0-.42-.29-.51l-.2-.06V2.5l2.52-.31ZM20.57.9A1,1,0,0,1,22.5.9a1,1,0,0,1-1.93,0Z"/><path class="cls-1" d="M26,3.09a1.6,1.6,0,0,1,1.63-.92,1.35,1.35,0,0,1,1.45.93,1.63,1.63,0,0,1,1.65-.93,1.35,1.35,0,0,1,1.51,1.47V6c0,.34.09.45.5.53v.28H29.82V6.54c.32-.08.38-.17.38-.5V3.64c0-.46-.21-.67-.55-.67a.59.59,0,0,0-.56.31,1.29,1.29,0,0,1,0,.29V6c0,.33.06.42.39.5v.28H26.7V6.54c.32-.08.39-.17.39-.5V3.64c0-.46-.21-.67-.54-.67a.58.58,0,0,0-.55.31V6c0,.33.07.42.39.5v.28H23.48V6.54c.4-.08.49-.19.49-.53V3.35c0-.34,0-.42-.29-.51l-.2-.06V2.5L26,2.19Z"/><path class="cls-1" d="M33.21,6a1,1,0,1,1,1,1A1,1,0,0,1,33.21,6Z"/><path class="cls-1" d="M35.72,4.56a2.45,2.45,0,0,1,2.71-2.39c1.2,0,1.94.55,1.94,1.32a.85.85,0,0,1-.84.87.83.83,0,0,1-.85-.83.81.81,0,0,1,.72-.81A1.16,1.16,0,0,0,39,2.66c-.71,0-1.21.58-1.21,1.56a1.64,1.64,0,0,0,1.58,1.86,1.58,1.58,0,0,0,1-.3v.29a2.48,2.48,0,0,1-2,.85A2.4,2.4,0,0,1,35.72,4.56Z"/><path class="cls-1" d="M40.81,5.83c0-.68.53-1.19,2-1.47l.85-.17V3.73c0-.8-.36-1.12-1.07-1.12a1.42,1.42,0,0,0-.42.06.76.76,0,0,1,.49.72.83.83,0,0,1-.85.81A.8.8,0,0,1,41,3.42c0-.67.8-1.25,2.3-1.25s2.38.52,2.38,1.68v2c0,.35.16.51.38.51l.16,0v.27a2.14,2.14,0,0,1-1.14.28c-.63,0-1.26-.28-1.36-.83-.14.53-.77.85-1.59.85S40.81,6.49,40.81,5.83Zm2.43.36a.45.45,0,0,0,.47-.32V4.51l-.16,0a.94.94,0,0,0-.78,1C42.77,6,43,6.19,43.24,6.19Z"/><path class="cls-1" d="M47,2.77h-.46V2.51L48.72,1H49V2.34l1-.08v.51l-1-.08V5.4c0,.55.22.78.58.78A.67.67,0,0,0,50,6v.29a1.87,1.87,0,0,1-1.48.61A1.4,1.4,0,0,1,47,5.38Z"/></g></g></svg>